# xmcd
#
# Track frame offsets:
#	150
#	14475
#	31725
#	48300
#	64500
#	78150
#	98925
#	111675
#	135075
#	150900
#	169125
#	185325
#	206775
#	222150
#	238650
#	256800
#
# Disc length: 3676
#
# Revision: 1
# Processed by: cddbd v1.5.2PL0 Copyright (c) Steve Scherf et al.
# Submitted via: kJams Pro (development) 1.0patch52.37
#
DISCID=cd0e5a10
DTITLE=Various Artist - HTG2011 – Power Hits 2003
DYEAR=2003
DGENRE=Country
TTITLE0=McBride, Martina - In My Daughters Eyes
TTITLE1=Evans, Sara - Perfect
TTITLE2=Coffey, Kellie - Texas Plates
TTITLE3=Messina, Jo Dee - I Wish
TTITLE4=Twain, Shania - Up!
TTITLE5=Austin, Sherryl - Streets of Heaven
TTITLE6=Clark, Terri - I Wanna Do It All
TTITLE7=Chicks, Dixie - Travelin' Soldier
TTITLE8=McEntire, Reba - I'm Gonna Take that Mountain
TTITLE9=Hansin, Jennifer - Beautiful Goodbye
TTITLE10=Loveless, Patty - Lovin' All Night
TTITLE11=Twain, Shania - Forever and Foralways
TTITLE12=Clark, Terri - I Just Wanna Be Mad
TTITLE13=Andrews, Jessica - There's More to Me Than You
TTITLE14=McBride, Martina - This One's for the Girls
TTITLE15=McBride, Martina - Concrete Angel
EXTD=MediaType: Karaoke CD+G Producer: All Hits
EXTT0=
EXTT1=
EXTT2=
EXTT3=
EXTT4=
EXTT5=
EXTT6=
EXTT7=
EXTT8=
EXTT9=
EXTT10=
EXTT11=
EXTT12=
EXTT13=
EXTT14=
EXTT15=
PLAYORDER=
